<svg width="50" height="50" viewBox="0 0 71 71" fill="none" xmlns="http://www.w3.org/2000/svg">
<rect x="0.335022" y="0.400024" width="70" height="70" rx="15" fill="#5E5EEE"/>
<g clip-path="url(#clip0_1_1616)">
<g clip-path="url(#clip1_1_1616)">
<g clip-path="url(#clip2_1_1616)">
<mask id="mask0_1_1616" style="mask-type:luminance" maskUnits="userSpaceOnUse" x="18" y="18" width="35" height="35">
<path d="M52.1265 18.4H18.1265V52.4H52.1265V18.4Z" fill="white"/>
</mask>
<g mask="url(#mask0_1_1616)">
<path d="M43.9757 40.8917C42.8649 39.7951 41.4782 39.7951 40.3745 40.8917C39.5325 41.7266 38.6906 42.5614 37.8628 43.4104C37.6364 43.6439 37.4454 43.6934 37.1694 43.5378C36.6247 43.2406 36.0445 43.0001 35.521 42.6746C33.0801 41.1393 31.0354 39.1654 29.2241 36.9438C28.3256 35.8401 27.5261 34.6586 26.9672 33.3284C26.854 33.0596 26.8752 32.8827 27.0946 32.6634C27.9365 31.8497 28.7572 31.0149 29.585 30.18C30.7382 29.0197 30.7382 27.6613 29.5779 26.4939C28.9199 25.8289 28.2619 25.178 27.604 24.5129C26.9248 23.8337 26.2526 23.1474 25.5663 22.4753C24.4556 21.3928 23.0688 21.3928 21.9651 22.4824C21.1161 23.3172 20.3025 24.1733 19.4393 24.994C18.6398 25.7511 18.2366 26.6779 18.1517 27.7604C18.0172 29.522 18.4488 31.1847 19.0573 32.8049C20.3025 36.1585 22.1986 39.1371 24.498 41.8681C27.604 45.5612 31.3113 48.4833 35.6483 50.5916C37.601 51.5397 39.6245 52.2684 41.8248 52.3887C43.3389 52.4736 44.6549 52.0915 45.7091 50.91C46.4307 50.1034 47.2444 49.3676 48.0085 48.5965C49.1405 47.4503 49.1476 46.0636 48.0226 44.9316C46.6784 43.5802 45.327 42.236 43.9757 40.8917Z" fill="white"/>
<path d="M42.6245 35.2528L45.2352 34.8071C44.8249 32.4086 43.6928 30.2366 41.9736 28.5103C40.1553 26.692 37.8559 25.5458 35.323 25.1921L34.9551 27.8169C36.9149 28.0929 38.6978 28.9772 40.1058 30.3852C41.4359 31.7153 42.3061 33.3991 42.6245 35.2528Z" fill="white"/>
<path d="M46.7068 23.9044C43.6928 20.8905 39.8794 18.9873 35.6697 18.4L35.3018 21.0249C38.9384 21.5343 42.2354 23.1828 44.839 25.7793C47.3082 28.2485 48.9284 31.3686 49.5156 34.8L52.1263 34.3543C51.4401 30.3781 49.5652 26.7698 46.7068 23.9044Z" fill="white"/>
</g>
</g>
</g>
</g>
<defs>
<clipPath id="clip0_1_1616">
<rect width="34" height="33.02" fill="white" transform="translate(18.335 18.89)"/>
</clipPath>
<clipPath id="clip1_1_1616">
<rect width="34" height="33.02" fill="white" transform="translate(18.335 18.89)"/>
</clipPath>
<clipPath id="clip2_1_1616">
<rect width="35" height="34" fill="white" transform="translate(17.835 18.4)"/>
</clipPath>
</defs>
</svg>
