<svg width="36" height="36" viewBox="0 0 36 36" fill="none" xmlns="http://www.w3.org/2000/svg">
<rect x="0.5" y="0.5" width="35" height="35" rx="17.5" fill="#5E5EEE"/>
<path d="M13.4166 27.1667C12.9125 27.1667 12.4809 26.9872 12.1218 26.6281C11.7628 26.2691 11.5833 25.8375 11.5833 25.3333C11.5833 24.8292 11.7628 24.3976 12.1218 24.0385C12.4809 23.6795 12.9125 23.5 13.4166 23.5C13.9208 23.5 14.3524 23.6795 14.7114 24.0385C15.0704 24.3976 15.25 24.8292 15.25 25.3333C15.25 25.8375 15.0704 26.2691 14.7114 26.6281C14.3524 26.9872 13.9208 27.1667 13.4166 27.1667ZM22.5833 27.1667C22.0791 27.1667 21.6475 26.9872 21.2885 26.6281C20.9295 26.2691 20.75 25.8375 20.75 25.3333C20.75 24.8292 20.9295 24.3976 21.2885 24.0385C21.6475 23.6795 22.0791 23.5 22.5833 23.5C23.0875 23.5 23.5191 23.6795 23.8781 24.0385C24.2371 24.3976 24.4166 24.8292 24.4166 25.3333C24.4166 25.8375 24.2371 26.2691 23.8781 26.6281C23.5191 26.9872 23.0875 27.1667 22.5833 27.1667ZM12.6375 12.5L14.8375 17.0833H21.2541L23.775 12.5H12.6375ZM11.7666 10.6667H25.2875C25.6388 10.6667 25.9062 10.8233 26.0895 11.1365C26.2729 11.4497 26.2805 11.7667 26.1125 12.0875L22.8583 17.9542C22.6902 18.2597 22.4649 18.4965 22.1823 18.6646C21.8996 18.8326 21.5902 18.9167 21.2541 18.9167H14.425L13.4166 20.75H24.4166V22.5833H13.4166C12.7291 22.5833 12.2097 22.2816 11.8583 21.6781C11.5069 21.0747 11.4916 20.475 11.8125 19.8792L13.05 17.6333L9.74996 10.6667H7.91663V8.83334H10.8958L11.7666 10.6667Z" fill="white"/>
</svg>
