<svg width="22" height="19" viewBox="0 0 22 19" fill="none" xmlns="http://www.w3.org/2000/svg">
<path d="M17.75 1.5498H4.25C3.45435 1.5498 2.69129 1.86588 2.12868 2.42848C1.56607 2.99109 1.25 3.75416 1.25 4.5498V12.0498C1.25 12.8455 1.56607 13.6085 2.12868 14.1711C2.69129 14.7337 3.45435 15.0498 4.25 15.0498H12.5L17 18.0498V15.0498H17.75C18.5456 15.0498 19.3087 14.7337 19.8713 14.1711C20.4339 13.6085 20.75 12.8455 20.75 12.0498V4.5498C20.75 3.75416 20.4339 2.99109 19.8713 2.42848C19.3087 1.86588 18.5456 1.5498 17.75 1.5498Z" stroke="#5E5EEE" stroke-width="1.5" stroke-linecap="round" stroke-linejoin="round"/>
<path d="M7.5 8.5498C7.5 8.74872 7.42098 8.93948 7.28033 9.08013C7.13968 9.22079 6.94891 9.2998 6.75 9.2998C6.55109 9.2998 6.36032 9.22079 6.21967 9.08013C6.07902 8.93948 6 8.74872 6 8.5498C6 8.35089 6.07902 8.16013 6.21967 8.01947C6.36032 7.87882 6.55109 7.7998 6.75 7.7998C6.94891 7.7998 7.13968 7.87882 7.28033 8.01947C7.42098 8.16013 7.5 8.35089 7.5 8.5498ZM12 8.5498C12 8.74872 11.921 8.93948 11.7803 9.08013C11.6397 9.22079 11.4489 9.2998 11.25 9.2998C11.0511 9.2998 10.8603 9.22079 10.7197 9.08013C10.579 8.93948 10.5 8.74872 10.5 8.5498C10.5 8.35089 10.579 8.16013 10.7197 8.01947C10.8603 7.87882 11.0511 7.7998 11.25 7.7998C11.4489 7.7998 11.6397 7.87882 11.7803 8.01947C11.921 8.16013 12 8.35089 12 8.5498ZM16.5 8.5498C16.5 8.74872 16.421 8.93948 16.2803 9.08013C16.1397 9.22079 15.9489 9.2998 15.75 9.2998C15.5511 9.2998 15.3603 9.22079 15.2197 9.08013C15.079 8.93948 15 8.74872 15 8.5498C15 8.35089 15.079 8.16013 15.2197 8.01947C15.3603 7.87882 15.5511 7.7998 15.75 7.7998C15.9489 7.7998 16.1397 7.87882 16.2803 8.01947C16.421 8.16013 16.5 8.35089 16.5 8.5498Z" stroke="#5E5EEE" stroke-width="1.5" stroke-linecap="round" stroke-linejoin="round"/>
</svg>
