<svg width="20" height="21" viewBox="0 0 20 21" fill="none" xmlns="http://www.w3.org/2000/svg">
<path fill-rule="evenodd" clip-rule="evenodd" d="M10 18.3C10.9849 18.3 11.9602 18.1061 12.8701 17.7291C13.7801 17.3522 14.6069 16.7998 15.3033 16.1033C15.9997 15.4069 16.5522 14.5801 16.9291 13.6702C17.306 12.7602 17.5 11.785 17.5 10.8C17.5 9.81513 17.306 8.83986 16.9291 7.92992C16.5522 7.01998 15.9997 6.19319 15.3033 5.49675C14.6069 4.80031 13.7801 4.24786 12.8701 3.87095C11.9602 3.49404 10.9849 3.30005 10 3.30005C8.01088 3.30005 6.10322 4.09022 4.6967 5.49675C3.29018 6.90327 2.5 8.81093 2.5 10.8C2.5 12.7892 3.29018 14.6968 4.6967 16.1033C6.10322 17.5099 8.01088 18.3 10 18.3ZM9.80667 13.8334L13.9733 8.83338L12.6933 7.76672L9.11 12.0659L7.25583 10.2109L6.0775 11.3892L8.5775 13.8892L9.2225 14.5342L9.80667 13.8334Z" fill="#52C600"/>
</svg>
