<svg width="18" height="19" viewBox="0 0 18 19" fill="none" xmlns="http://www.w3.org/2000/svg">
<path d="M7.16251 11.6625L13.5188 5.3063C13.6688 5.1563 13.8438 5.0813 14.0438 5.0813C14.2438 5.0813 14.4188 5.1563 14.5688 5.3063C14.7188 5.4563 14.7938 5.63455 14.7938 5.84105C14.7938 6.04755 14.7188 6.22555 14.5688 6.37505L7.68751 13.275C7.53751 13.425 7.36251 13.5 7.16251 13.5C6.96251 13.5 6.78751 13.425 6.63751 13.275L3.41251 10.05C3.26251 9.90005 3.19051 9.72205 3.19651 9.51605C3.20251 9.31005 3.28076 9.1318 3.43126 8.9813C3.58176 8.8308 3.76001 8.7558 3.96601 8.7563C4.17201 8.7568 4.35001 8.8318 4.50001 8.9813L7.16251 11.6625Z" fill="#4E9B18"/>
</svg>
