<svg width="20" height="22" viewBox="0 0 20 22" fill="none" xmlns="http://www.w3.org/2000/svg">
<path d="M5.94999 9.93503C6.47363 9.39156 7.10156 8.95933 7.79616 8.66421C8.49077 8.3691 9.23779 8.21718 9.99249 8.21753C11.4625 8.21753 12.925 8.78753 14.035 9.93503C16.2625 12.2225 16.2625 15.9425 14.035 18.23C13.5119 18.7742 12.884 19.2069 12.1893 19.502C11.4946 19.7972 10.7473 19.9487 9.99249 19.9475C8.46999 19.9475 7.02999 19.34 5.94999 18.23C4.87007 17.1204 4.26941 15.6309 4.27749 14.0825C4.27749 12.515 4.86999 11.045 5.94999 9.93503ZM11.0725 12.335L10.45 11.045C10.2625 10.655 9.72249 10.655 9.51999 11.045L8.89749 12.335C8.82248 12.4925 8.67999 12.5975 8.51499 12.62L7.12749 12.83C6.71499 12.89 6.54999 13.415 6.84999 13.715L7.80999 14.675C7.95249 14.8175 8.00499 15.0275 7.93749 15.2225L7.49499 16.505C7.34499 16.9325 7.77249 17.3375 8.17748 17.1575L9.78249 16.4375C9.90999 16.3775 10.06 16.3775 10.1875 16.4375L11.7925 17.1575C12.205 17.3375 12.625 16.9325 12.475 16.505L12.0325 15.2225C12.0014 15.1284 11.9969 15.0275 12.0194 14.9309C12.0419 14.8343 12.0905 14.7458 12.16 14.675L13.12 13.715C13.4275 13.415 13.255 12.89 12.8425 12.83L11.455 12.62C11.373 12.6067 11.2955 12.5738 11.2289 12.5242C11.1624 12.4746 11.1087 12.4097 11.0725 12.335Z" fill="#5E5EEE"/>
<path d="M2.28099 0.807617L2.28324 0.811367H6.95949C7.46199 0.811367 7.91349 1.06262 8.16099 1.49762L9.99999 4.52162L11.8352 1.50512C12.0902 1.07012 12.5477 0.807617 13.0502 0.807617H14.5802L14.578 0.811367H17.9987C19.0787 0.811367 19.7552 1.97762 19.2152 2.93012C18.2303 4.68022 16.8354 6.1652 15.1502 7.25762C14.8855 7.46312 14.593 7.62512 14.2825 7.73987C16.24 9.13337 17.5225 11.4546 17.5225 14.0826C17.5225 18.3449 14.1505 21.8001 9.99249 21.8001C5.83299 21.8001 2.46249 18.3449 2.46249 14.0826C2.46249 11.4494 3.74874 9.12362 5.71299 7.73162C5.40063 7.61685 5.10791 7.45443 4.84524 7.25012C3.16524 6.15512 1.77024 4.67012 0.780239 2.92262C0.247739 1.97762 0.930238 0.807617 2.01774 0.807617H2.28099ZM7.47849 6.80612C7.91498 6.64851 8.36516 6.53176 8.82324 6.45737L8.93124 6.28037L5.90274 1.55012H2.71524C3.91888 3.51095 5.46911 5.23652 7.29024 6.64262C7.35224 6.69862 7.41499 6.75312 7.47849 6.80612ZM17.3065 1.55012H14.104L10.975 6.43037C11.5025 6.50078 12.0208 6.62828 12.5207 6.81062C12.5866 6.7562 12.6511 6.70018 12.7142 6.64262C14.5416 5.23809 16.0977 3.51242 17.3065 1.55012ZM5.31999 18.8826C5.92577 19.5123 6.65265 20.013 7.45691 20.3546C8.26117 20.6961 9.12621 20.8715 9.99999 20.8701C11.7625 20.8701 13.4275 20.1651 14.6875 18.8826C17.2675 16.2351 17.2675 11.9301 14.6875 9.28262C14.0798 8.65457 13.352 8.15516 12.5473 7.81409C11.7427 7.47302 10.8777 7.29726 10.0037 7.29726C9.1298 7.29726 8.26479 7.47302 7.46016 7.81409C6.65553 8.15516 5.92771 8.65457 5.31999 9.28262C4.0671 10.5653 3.36932 12.2896 3.37749 14.0826C3.37749 15.8976 4.06749 17.6001 5.31999 18.8826Z" fill="#5E5EEE"/>
</svg>
