<svg width="32" height="33" viewBox="0 0 40 41" fill="none" xmlns="http://www.w3.org/2000/svg">
<rect y="0.799805" width="40" height="40" rx="20" fill="white"/>
<path fill-rule="evenodd" clip-rule="evenodd" d="M11 16.7998C11 15.4737 11.5268 14.202 12.4645 13.2643C13.4021 12.3266 14.6739 11.7998 16 11.7998H24C25.3261 11.7998 26.5979 12.3266 27.5355 13.2643C28.4732 14.202 29 15.4737 29 16.7998V24.7998C29 26.1259 28.4732 27.3977 27.5355 28.3353C26.5979 29.273 25.3261 29.7998 24 29.7998H16C14.6739 29.7998 13.4021 29.273 12.4645 28.3353C11.5268 27.3977 11 26.1259 11 24.7998V16.7998ZM16 13.7998C15.2044 13.7998 14.4413 14.1159 13.8787 14.6785C13.3161 15.2411 13 16.0042 13 16.7998V24.7998C13 25.5955 13.3161 26.3585 13.8787 26.9211C14.4413 27.4837 15.2044 27.7998 16 27.7998H24C24.7956 27.7998 25.5587 27.4837 26.1213 26.9211C26.6839 26.3585 27 25.5955 27 24.7998V16.7998C27 16.0042 26.6839 15.2411 26.1213 14.6785C25.5587 14.1159 24.7956 13.7998 24 13.7998H16ZM23.597 16.0138C23.597 15.7486 23.7024 15.4942 23.8899 15.3067C24.0774 15.1192 24.3318 15.0138 24.597 15.0138H24.607C24.8722 15.0138 25.1266 15.1192 25.3141 15.3067C25.5016 15.4942 25.607 15.7486 25.607 16.0138C25.607 16.279 25.5016 16.5334 25.3141 16.7209C25.1266 16.9084 24.8722 17.0138 24.607 17.0138H24.597C24.3318 17.0138 24.0774 16.9084 23.8899 16.7209C23.7024 16.5334 23.597 16.279 23.597 16.0138ZM20 17.7998C19.2044 17.7998 18.4413 18.1159 17.8787 18.6785C17.3161 19.2411 17 20.0042 17 20.7998C17 21.5955 17.3161 22.3585 17.8787 22.9211C18.4413 23.4837 19.2044 23.7998 20 23.7998C20.7956 23.7998 21.5587 23.4837 22.1213 22.9211C22.6839 22.3585 23 21.5955 23 20.7998C23 20.0042 22.6839 19.2411 22.1213 18.6785C21.5587 18.1159 20.7956 17.7998 20 17.7998ZM15 20.7998C15 19.4737 15.5268 18.202 16.4645 17.2643C17.4021 16.3266 18.6739 15.7998 20 15.7998C21.3261 15.7998 22.5979 16.3266 23.5355 17.2643C24.4732 18.202 25 19.4737 25 20.7998C25 22.1259 24.4732 23.3977 23.5355 24.3353C22.5979 25.273 21.3261 25.7998 20 25.7998C18.6739 25.7998 17.4021 25.273 16.4645 24.3353C15.5268 23.3977 15 22.1259 15 20.7998Z" fill="black"/>
</svg>
