<svg width="36" height="36" viewBox="0 0 36 36" fill="none" xmlns="http://www.w3.org/2000/svg">
<rect x="0.5" y="0.5" width="35" height="35" rx="17.5" fill="#5E5EEE"/>
<path d="M18.0917 24.0042L18 24.0958L17.8992 24.0042C13.545 20.0533 10.6667 17.4408 10.6667 14.7917C10.6667 12.9583 12.0417 11.5833 13.875 11.5833C15.2867 11.5833 16.6617 12.5 17.1475 13.7467H18.8525C19.3384 12.5 20.7134 11.5833 22.125 11.5833C23.9584 11.5833 25.3334 12.9583 25.3334 14.7917C25.3334 17.4408 22.455 20.0533 18.0917 24.0042ZM22.125 9.75C20.53 9.75 18.9992 10.4925 18 11.6567C17.0009 10.4925 15.47 9.75 13.875 9.75C11.0517 9.75 8.83337 11.9592 8.83337 14.7917C8.83337 18.2475 11.95 21.08 16.6709 25.3608L18 26.5708L19.3292 25.3608C24.05 21.08 27.1667 18.2475 27.1667 14.7917C27.1667 11.9592 24.9484 9.75 22.125 9.75Z" fill="white"/>
</svg>
