<svg width="32" height="33" viewBox="0 0 40 41" fill="none" xmlns="http://www.w3.org/2000/svg">
<rect y="0.799805" width="40" height="40" rx="20" fill="white"/>
<path d="M27 11.7998C27.5304 11.7998 28.0391 12.0105 28.4142 12.3856C28.7893 12.7607 29 13.2694 29 13.7998V27.7998C29 28.3302 28.7893 28.8389 28.4142 29.214C28.0391 29.5891 27.5304 29.7998 27 29.7998H13C12.4696 29.7998 11.9609 29.5891 11.5858 29.214C11.2107 28.8389 11 28.3302 11 27.7998V13.7998C11 13.2694 11.2107 12.7607 11.5858 12.3856C11.9609 12.0105 12.4696 11.7998 13 11.7998H27ZM26.5 27.2998V21.9998C26.5 21.1352 26.1565 20.306 25.5452 19.6946C24.9338 19.0833 24.1046 18.7398 23.24 18.7398C22.39 18.7398 21.4 19.2598 20.92 20.0398V18.9298H18.13V27.2998H20.92V22.3698C20.92 21.5998 21.54 20.9698 22.31 20.9698C22.6813 20.9698 23.0374 21.1173 23.2999 21.3799C23.5625 21.6424 23.71 21.9985 23.71 22.3698V27.2998H26.5ZM14.88 17.3598C15.3256 17.3598 15.7529 17.1828 16.0679 16.8677C16.383 16.5527 16.56 16.1254 16.56 15.6798C16.56 14.7498 15.81 13.9898 14.88 13.9898C14.4318 13.9898 14.0019 14.1679 13.685 14.4848C13.3681 14.8017 13.19 15.2316 13.19 15.6798C13.19 16.6098 13.95 17.3598 14.88 17.3598ZM16.27 27.2998V18.9298H13.5V27.2998H16.27Z" fill="black"/>
</svg>
