<svg width="14" height="14" viewBox="0 0 14 14" fill="none" xmlns="http://www.w3.org/2000/svg">
<circle cx="7" cy="7" r="6.5" fill="#FF3F4F"/>
<path d="M7.24112 10.1667C6.78948 10.1667 6.34699 10.1026 5.91366 9.97442C5.48643 9.84015 5.12633 9.65705 4.83337 9.42512L5.3369 8.50047C5.56882 8.68968 5.84957 8.84226 6.17915 8.95822C6.51483 9.07418 6.86272 9.13216 7.22281 9.13216C7.64394 9.13216 7.97351 9.04367 8.21154 8.86667C8.45567 8.68968 8.57774 8.45165 8.57774 8.15259C8.57774 7.95118 8.52586 7.77418 8.42211 7.6216C8.32445 7.46902 8.14746 7.35306 7.89112 7.27371C7.64089 7.19437 7.29605 7.1547 6.85661 7.1547H5.30943L5.63901 3.66667H9.40168V4.66456H6.07844L6.70098 4.09695L6.4538 6.70611L5.83126 6.14766H7.12211C7.75685 6.14766 8.26647 6.2331 8.65098 6.404C9.04159 6.56878 9.32539 6.80071 9.50239 7.09977C9.68549 7.39273 9.77704 7.72841 9.77704 8.10681C9.77704 8.47911 9.68549 8.8209 9.50239 9.13216C9.31929 9.44343 9.03854 9.69367 8.66013 9.88287C8.28783 10.0721 7.81483 10.1667 7.24112 10.1667Z" fill="white"/>
</svg>
