<svg width="22" height="17" viewBox="0 0 22 17" fill="none" xmlns="http://www.w3.org/2000/svg">
<path d="M20.75 0.073243H15.3875C14.2367 0.073243 13.1117 0.403712 12.1437 1.02715L11 1.76074L9.85625 1.02715C8.88924 0.403831 7.76299 0.0726278 6.6125 0.073243H1.25C0.835156 0.073243 0.5 0.408399 0.5 0.823243V14.1357C0.5 14.5506 0.835156 14.8857 1.25 14.8857H6.6125C7.76328 14.8857 8.88828 15.2162 9.85625 15.8397L10.8969 16.51C10.9273 16.5287 10.9625 16.5404 10.9977 16.5404C11.0328 16.5404 11.068 16.5311 11.0984 16.51L12.1391 15.8397C13.1094 15.2162 14.2367 14.8857 15.3875 14.8857H20.75C21.1648 14.8857 21.5 14.5506 21.5 14.1357V0.823243C21.5 0.408399 21.1648 0.073243 20.75 0.073243ZM6.6125 13.1982H2.1875V1.76074H6.6125C7.44219 1.76074 8.24844 1.99746 8.94453 2.44512L10.0883 3.17871L10.25 3.28418V14.1123C9.13437 13.5123 7.8875 13.1982 6.6125 13.1982ZM19.8125 13.1982H15.3875C14.1125 13.1982 12.8656 13.5123 11.75 14.1123V3.28418L11.9117 3.17871L13.0555 2.44512C13.7516 1.99746 14.5578 1.76074 15.3875 1.76074H19.8125V13.1982ZM8.30234 4.76074H3.94766C3.85625 4.76074 3.78125 4.84043 3.78125 4.93652V5.99121C3.78125 6.08731 3.85625 6.16699 3.94766 6.16699H8.3C8.39141 6.16699 8.46641 6.08731 8.46641 5.99121V4.93652C8.46875 4.84043 8.39375 4.76074 8.30234 4.76074ZM13.5312 4.93652V5.99121C13.5312 6.08731 13.6062 6.16699 13.6977 6.16699H18.05C18.1414 6.16699 18.2164 6.08731 18.2164 5.99121V4.93652C18.2164 4.84043 18.1414 4.76074 18.05 4.76074H13.6977C13.6062 4.76074 13.5312 4.84043 13.5312 4.93652ZM8.30234 8.04199H3.94766C3.85625 8.04199 3.78125 8.12168 3.78125 8.21777V9.27246C3.78125 9.36856 3.85625 9.44824 3.94766 9.44824H8.3C8.39141 9.44824 8.46641 9.36856 8.46641 9.27246V8.21777C8.46875 8.12168 8.39375 8.04199 8.30234 8.04199ZM18.0523 8.04199H13.6977C13.6062 8.04199 13.5312 8.12168 13.5312 8.21777V9.27246C13.5312 9.36856 13.6062 9.44824 13.6977 9.44824H18.05C18.1414 9.44824 18.2164 9.36856 18.2164 9.27246V8.21777C18.2188 8.12168 18.1438 8.04199 18.0523 8.04199Z" fill="white"/>
</svg>
