<svg width="30" height="30" viewBox="0 0 36 36" fill="none" xmlns="http://www.w3.org/2000/svg">
<path d="M29.4951 30.925L20.3076 21.7375C19.5784 22.3209 18.7399 22.7827 17.792 23.123C16.844 23.4632 15.8354 23.6334 14.7659 23.6334C12.1166 23.6334 9.87442 22.7158 8.03935 20.8808C6.20428 19.0457 5.28674 16.8035 5.28674 14.1542C5.28674 11.5049 6.20428 9.26272 8.03935 7.42765C9.87442 5.59258 12.1166 4.67505 14.7659 4.67505C17.4152 4.67505 19.6574 5.59258 21.4925 7.42765C23.3275 9.26272 24.2451 11.5049 24.2451 14.1542C24.2451 15.2237 24.0749 16.2323 23.7347 17.1803C23.3944 18.1282 22.9326 18.9667 22.3492 19.6959L31.5367 28.8834L29.4951 30.925ZM14.7659 20.7167C16.5888 20.7167 18.1383 20.0787 19.4143 18.8027C20.6904 17.5266 21.3284 15.9771 21.3284 14.1542C21.3284 12.3313 20.6904 10.7818 19.4143 9.50578C18.1383 8.22974 16.5888 7.59172 14.7659 7.59172C12.943 7.59172 11.3935 8.22974 10.1175 9.50578C8.84143 10.7818 8.20341 12.3313 8.20341 14.1542C8.20341 15.9771 8.84143 17.5266 10.1175 18.8027C11.3935 20.0787 12.943 20.7167 14.7659 20.7167Z" fill="white"/>
</svg>
