<svg width="15" height="15" viewBox="0 0 21 21" fill="none" xmlns="http://www.w3.org/2000/svg">
<path d="M8 5.79996C8.41667 6.21663 9.2525 6.14329 10.5 5.11329M10.5 5.11329C10.3156 4.96218 10.1242 4.78829 9.92583 4.59163C8.00417 2.68829 5.3875 3.06079 4.16167 4.59163C3.315 5.64996 1.14833 8.28329 6.45167 17.6666C6.67167 18.055 7.10917 18.3 7.58 18.3C8.33167 18.3 8.91917 17.7 8.94333 17C8.99583 15.515 9.28333 13.8025 10.5 13.8025C11.7167 13.8025 12.005 15.515 12.0567 17C12.0808 17.7 12.6683 18.3 13.42 18.3C13.8908 18.3 14.3283 18.055 14.5483 17.6666C19.8525 8.28246 17.685 5.64996 16.8383 4.59163C15.6125 3.06079 12.9958 2.68829 11.0742 4.59163C10.8758 4.78774 10.6844 4.96163 10.5 5.11329Z" stroke="#42428E" stroke-width="1.6" stroke-linecap="round" stroke-linejoin="round"/>
</svg>
