<svg width="30" height="30" viewBox="0 0 36 36" fill="none" xmlns="http://www.w3.org/2000/svg">
<path d="M10.7083 32.3835C9.90623 32.3835 9.2196 32.0979 8.64842 31.5267C8.07724 30.9555 7.79165 30.2689 7.79165 29.4668C7.79165 28.6647 8.07724 27.9781 8.64842 27.4069C9.2196 26.8357 9.90623 26.5501 10.7083 26.5501C11.5104 26.5501 12.197 26.8357 12.7682 27.4069C13.3394 27.9781 13.625 28.6647 13.625 29.4668C13.625 30.2689 13.3394 30.9555 12.7682 31.5267C12.197 32.0979 11.5104 32.3835 10.7083 32.3835ZM25.2916 32.3835C24.4896 32.3835 23.8029 32.0979 23.2318 31.5267C22.6606 30.9555 22.375 30.2689 22.375 29.4668C22.375 28.6647 22.6606 27.9781 23.2318 27.4069C23.8029 26.8357 24.4896 26.5501 25.2916 26.5501C26.0937 26.5501 26.7804 26.8357 27.3515 27.4069C27.9227 27.9781 28.2083 28.6647 28.2083 29.4668C28.2083 30.2689 27.9227 30.9555 27.3515 31.5267C26.7804 32.0979 26.0937 32.3835 25.2916 32.3835ZM9.46873 9.05013L12.9687 16.3418H23.1771L27.1875 9.05013H9.46873ZM8.08331 6.13346H29.5937C30.1528 6.13346 30.5781 6.3826 30.8698 6.88086C31.1614 7.37912 31.1736 7.88346 30.9062 8.39388L25.7291 17.7272C25.4618 18.2133 25.1033 18.5901 24.6536 18.8574C24.204 19.1248 23.7118 19.2585 23.1771 19.2585H12.3125L10.7083 22.1751H28.2083V25.0918H10.7083C9.61456 25.0918 8.78817 24.6118 8.22915 23.6517C7.67012 22.6916 7.64581 21.7376 8.15623 20.7897L10.125 17.2168L4.87498 6.13346H1.95831V3.2168H6.6979L8.08331 6.13346Z" fill="white"/>
</svg>
