<svg width="16" height="17" viewBox="0 0 16 17" fill="#FFFFFF" xmlns="http://www.w3.org/2000/svg">
<path d="M8 0.5C3.6 0.5 0 4.1 0 8.5C0 12.9 3.6 16.5 8 16.5C12.4 16.5 16 12.9 16 8.5C16 4.1 12.4 0.5 8 0.5ZM13.1 12.1C12.1 12.1 11.7 11.3 11.5 10.5C11.3 11.4 10.9 12.5 9.7 12.5C8.6 12.5 8.2 11.4 8 10.5C7.8 11.5 7.4 12.5 6.3 12.5C5.2 12.5 4.7 11.4 4.5 10.5C4.3 11.3 3.9 12.1 2.9 12.1C0.9 12.1 1 9.1 1 9.1C1 9.1 1.2 8.5 2.7 8.5C1.2 8.5 1 8 1 8C1 8 0.9 5 2.9 5C3.9 5 4.3 5.8 4.5 6.6C4.7 5.7 5.1 4.6 6.3 4.6C7.4 4.5 7.8 5.6 8 6.5C8.2 5.5 8.6 4.5 9.7 4.5C10.8 4.5 11.3 5.6 11.5 6.5C11.7 5.7 12.1 4.9 13.1 4.9C15.1 4.9 15 7.9 15 7.9C15 7.9 14.7 8.5 13.2 8.5C12 8.5 11.6 8.2 11.4 8.1C11.2 8.3 10.7 8.5 9.8 8.5C8.6 8.5 8.2 8.3 8 8.1C7.9 8.2 7.4 8.5 6.4 8.5C7.4 8.5 7.8 8.8 8 8.9C8.2 8.7 8.6 8.5 9.8 8.5C10.8 8.5 11.2 8.7 11.5 8.9C11.5 8.8 12 8.5 13.2 8.5C14.7 8.5 15 9.1 15 9.1C15 9.1 15.1 12.1 13.1 12.1Z" fill="#5E5EEE"/>
</svg>
