<svg width="24" height="24" viewBox="0 0 24 24" fill="none" xmlns="http://www.w3.org/2000/svg">
<path d="M12 16.102L8.37002 18.294C8.26336 18.3467 8.16436 18.368 8.07302 18.358C7.98236 18.3473 7.89402 18.316 7.80802 18.264C7.72136 18.2107 7.65602 18.1353 7.61202 18.038C7.56802 17.9407 7.56402 17.8343 7.60002 17.719L8.56602 13.609L5.37102 10.839C5.28102 10.7657 5.22169 10.678 5.19302 10.576C5.16436 10.474 5.17069 10.3763 5.21202 10.283C5.25336 10.1897 5.30836 10.113 5.37702 10.053C5.44636 9.99501 5.53969 9.95568 5.65702 9.93501L9.87302 9.56701L11.517 5.67501C11.5624 5.56501 11.6277 5.48568 11.713 5.43701C11.7984 5.38835 11.894 5.36401 12 5.36401C12.106 5.36401 12.202 5.38835 12.288 5.43701C12.374 5.48568 12.439 5.56501 12.483 5.67501L14.127 9.56701L18.342 9.93501C18.46 9.95501 18.5537 9.99468 18.623 10.054C18.6924 10.1127 18.7477 10.189 18.789 10.283C18.8297 10.3763 18.8357 10.474 18.807 10.576C18.7784 10.678 18.719 10.7657 18.629 10.839L15.434 13.609L16.4 17.719C16.4374 17.833 16.4337 17.939 16.389 18.037C16.3444 18.135 16.2787 18.2103 16.192 18.263C16.1067 18.3163 16.0184 18.348 15.927 18.358C15.8364 18.368 15.7377 18.3467 15.631 18.294L12 16.102Z" fill="#FFDF00"/>
</svg>
