<svg width="17" height="18" viewBox="0 0 17 18" fill="none" xmlns="http://www.w3.org/2000/svg">
<path d="M6.00006 3.79996C6.41673 4.21663 7.25256 4.14329 8.50006 3.11329M8.50006 3.11329C8.31562 2.96218 8.12423 2.78829 7.92589 2.59163C6.00423 0.688294 3.38756 1.06079 2.16173 2.59163C1.31506 3.64996 -0.851606 6.28329 4.45173 15.6666C4.67173 16.055 5.10923 16.3 5.58006 16.3C6.33173 16.3 6.91923 15.7 6.94339 15C6.99589 13.515 7.28339 11.8025 8.50006 11.8025C9.71673 11.8025 10.0051 13.515 10.0567 15C10.0809 15.7 10.6684 16.3 11.4201 16.3C11.8909 16.3 12.3284 16.055 12.5484 15.6666C17.8526 6.28246 15.6851 3.64996 14.8384 2.59163C13.6126 1.06079 10.9959 0.688294 9.07423 2.59163C8.87589 2.78774 8.6845 2.96163 8.50006 3.11329Z" stroke="#42428E" stroke-width="1.6" stroke-linecap="round" stroke-linejoin="round"/>
</svg>
