<svg width="20" height="20" viewBox="0 0 35 36" fill="none" xmlns="http://www.w3.org/2000/svg">
<rect y="0.300049" width="35" height="35" rx="17.5" fill="white"/>
<path d="M15 12.8C15.4167 13.2166 16.2525 13.1433 17.5 12.1133M17.5 12.1133C17.3156 11.9622 17.1242 11.7883 16.9258 11.5916C15.0042 9.68829 12.3875 10.0608 11.1617 11.5916C10.315 12.65 8.14833 15.2833 13.4517 24.6666C13.6717 25.055 14.1092 25.3 14.58 25.3C15.3317 25.3 15.9192 24.7 15.9433 24C15.9958 22.515 16.2833 20.8025 17.5 20.8025C18.7167 20.8025 19.005 22.515 19.0567 24C19.0808 24.7 19.6683 25.3 20.42 25.3C20.8908 25.3 21.3283 25.055 21.5483 24.6666C26.8525 15.2825 24.685 12.65 23.8383 11.5916C22.6125 10.0608 19.9958 9.68829 18.0742 11.5916C17.8758 11.7877 17.6844 11.9616 17.5 12.1133Z" stroke="#42428E" stroke-width="1.6" stroke-linecap="round" stroke-linejoin="round"/>
</svg>
