<svg width="60" height="60" viewBox="0 0 86 71" fill="none" xmlns="http://www.w3.org/2000/svg">
<rect x="0.165039" y="0.400024" width="70" height="70" rx="15" fill="#5E5EEE"/>
<g clip-path="url(#clip0_1_1634)">
<g clip-path="url(#clip1_1_1634)">
<g clip-path="url(#clip2_1_1634)">
<mask id="mask0_1_1634" style="mask-type:luminance" maskUnits="userSpaceOnUse" x="18" y="18" width="35" height="35">
<path d="M52.165 18.4H18.165V52.4H52.165V18.4Z" fill="white"/>
</mask>
<g mask="url(#mask0_1_1634)">
<path d="M50.9522 38.4049H48.3L43.4672 46.8273H48.9382L48.931 49.636L50.9231 49.6412L50.9304 46.8272H52.165V44.835H50.9356L50.9522 38.4049ZM48.9434 44.8351H46.9073L48.9526 41.2706L48.9434 44.8351Z" fill="white"/>
<path d="M42.5987 44.6202C43.2158 43.7384 43.6653 42.7964 43.7846 41.7365C43.7846 39.9117 42.3 38.427 40.4751 38.427C38.8972 38.427 37.5314 39.5495 37.2276 41.0961L37.0356 42.0735L38.9905 42.4575L39.1825 41.4801C39.3032 40.8653 39.8468 40.4191 40.4751 40.4191C41.1831 40.4191 41.7625 40.9806 41.7913 41.6818C41.6576 42.3475 41.3612 42.9139 40.9665 43.4778C38.7873 46.5914 37.8344 47.6112 37.8268 47.6192L37.5533 47.9062L37.5471 49.599L44.1647 49.6192L44.1708 47.627L40.4067 47.6155C40.9345 46.9357 41.6573 45.9651 42.5987 44.6202Z" fill="white"/>
<path d="M46.1273 34.4039C45.6519 29.1277 41.4373 24.9139 36.1612 24.4385V26.4684H34.169V24.4387C28.8931 24.9143 24.6794 29.128 24.2039 34.4039H26.2335V36.3961H24.2036C24.6791 41.6722 28.8929 45.8868 34.169 46.3621V44.3316H36.1612V38.2257C35.8494 38.336 35.5143 38.3966 35.1651 38.3966C34.702 38.3966 34.2632 38.2909 33.8713 38.1025L31.8574 40.1164L30.4488 38.7077L32.4626 36.6939C32.2742 36.302 32.1685 35.8631 32.1685 35.4C32.1685 34.0968 33.005 32.9859 34.169 32.5743V29.3985H36.1612V32.5743C37.3252 32.9859 38.1617 34.0968 38.1617 35.4C38.1617 35.7492 38.1011 36.0842 37.9908 36.3961H44.0968V34.4039H46.1273Z" fill="white"/>
<path d="M35.165 36.4044C35.7197 36.4044 36.1694 35.9547 36.1694 35.4C36.1694 34.8453 35.7197 34.3956 35.165 34.3956C34.6103 34.3956 34.1606 34.8453 34.1606 35.4C34.1606 35.9547 34.6103 36.4044 35.165 36.4044Z" fill="white"/>
<path d="M47.1858 23.3792C43.9749 20.1683 39.7059 18.4 35.165 18.4C30.6241 18.4 26.3551 20.1683 23.1442 23.3792C19.9333 26.5901 18.165 30.8591 18.165 35.4C18.165 39.9409 19.9333 44.2099 23.1442 47.4209C26.3551 50.6317 30.6241 52.4 35.165 52.4H36.1611V48.399H35.165C27.9973 48.399 22.166 42.5677 22.166 35.4C22.166 28.2323 27.9973 22.401 35.165 22.401C42.3327 22.401 48.164 28.2323 48.164 35.4V36.3961H52.165V35.4C52.165 30.8591 50.3967 26.5901 47.1858 23.3792Z" fill="white"/>
</g>
</g>
</g>
</g>
<defs>
<clipPath id="clip0_1_1634">
<rect width="34" height="34" fill="white" transform="translate(18.165 18.4)"/>
</clipPath>
<clipPath id="clip1_1_1634">
<rect width="34" height="34" fill="white" transform="translate(18.165 18.4)"/>
</clipPath>
<clipPath id="clip2_1_1634">
<rect width="34" height="34" fill="white" transform="translate(18.165 18.4)"/>
</clipPath>
</defs>
</svg>
