<svg width="19" height="21" viewBox="0 0 19 21" fill="none" xmlns="http://www.w3.org/2000/svg">
<path fill-rule="evenodd" clip-rule="evenodd" d="M9.66504 2.40004C9.27107 2.40004 8.88097 2.47764 8.51699 2.62841C8.15301 2.77917 7.82229 3.00015 7.54372 3.27872C7.26514 3.5573 7.04416 3.88802 6.8934 4.25199C6.74264 4.61597 6.66504 5.00608 6.66504 5.40004C6.66504 5.79401 6.74264 6.18412 6.8934 6.54809C7.04416 6.91207 7.26514 7.24279 7.54372 7.52137C7.82229 7.79994 8.15301 8.02092 8.51699 8.17168C8.88097 8.32245 9.27107 8.40004 9.66504 8.40004C10.4607 8.40004 11.2238 8.08397 11.7864 7.52137C12.349 6.95876 12.665 6.19569 12.665 5.40004C12.665 4.60439 12.349 3.84133 11.7864 3.27872C11.2238 2.71611 10.4607 2.40004 9.66504 2.40004ZM4.66504 5.40004C4.66523 4.45401 4.93381 3.52745 5.43957 2.72797C5.94534 1.92848 6.66754 1.28889 7.5223 0.883471C8.37705 0.478051 9.32929 0.323443 10.2684 0.437603C11.2075 0.551764 12.095 0.930007 12.8277 1.5284C13.5604 2.1268 14.1084 2.92079 14.4079 3.81817C14.7074 4.71554 14.7461 5.67946 14.5197 6.59799C14.2932 7.51651 13.8108 8.35194 13.1285 9.00725C12.4462 9.66255 11.592 10.1108 10.665 10.3V15.4C10.665 15.6653 10.5597 15.9196 10.3721 16.1072C10.1846 16.2947 9.93026 16.4 9.66504 16.4C9.39982 16.4 9.14547 16.2947 8.95793 16.1072C8.7704 15.9196 8.66504 15.6653 8.66504 15.4V10.3C7.53567 10.0695 6.52064 9.45586 5.79173 8.56295C5.06282 7.67003 4.6648 6.5527 4.66504 5.40004ZM7.15404 14.5C7.17393 14.6299 7.16803 14.7625 7.13667 14.8901C7.10532 15.0177 7.04912 15.1378 6.97129 15.2437C6.89347 15.3496 6.79554 15.4391 6.68311 15.5071C6.57068 15.5751 6.44594 15.6203 6.31604 15.64C5.03804 15.834 4.02304 16.129 3.35604 16.455C2.13604 17.052 3.56204 17.481 4.30604 17.713C5.63304 18.128 7.52804 18.4 9.66504 18.4C11.802 18.4 13.697 18.128 15.024 17.713C15.773 17.479 17.194 17.053 15.974 16.455C15.307 16.129 14.292 15.835 13.014 15.64C12.8827 15.622 12.7563 15.5781 12.6421 15.5107C12.5279 15.4434 12.4282 15.3541 12.3489 15.2479C12.2695 15.1417 12.2121 15.0208 12.1799 14.8922C12.1477 14.7636 12.1414 14.6299 12.1614 14.4988C12.1813 14.3678 12.2271 14.242 12.2961 14.1288C12.3651 14.0156 12.4559 13.9173 12.5633 13.8395C12.6706 13.7617 12.7924 13.7061 12.9214 13.6758C13.0505 13.6455 13.1843 13.6412 13.315 13.663C14.703 13.873 15.937 14.21 16.854 14.659C17.738 15.092 18.665 15.821 18.665 16.9C18.665 17.711 18.141 18.3 17.631 18.677C15.481 20.265 12.201 20.4 9.66504 20.4C7.38304 20.4 5.27804 20.112 3.71004 19.622C2.46004 19.232 0.665039 18.462 0.665039 16.9C0.665039 15.82 1.59204 15.092 2.47604 14.66C3.39304 14.21 4.62804 13.874 6.01404 13.663C6.14392 13.6432 6.27646 13.6491 6.40406 13.6804C6.53166 13.7118 6.65183 13.768 6.75771 13.8458C6.86358 13.9236 6.95308 14.0215 7.02108 14.134C7.08909 14.2464 7.13427 14.3701 7.15404 14.5Z" fill="white"/>
</svg>
