<svg width="35" height="34" viewBox="0 0 35 34" fill="none" xmlns="http://www.w3.org/2000/svg">
<path d="M29.2901 4.95663C26.1871 1.86645 21.9859 0.132028 17.6067 0.133301C8.49672 0.133301 1.05005 7.5283 1.05005 16.64C1.05005 19.5866 1.80005 22.3733 3.24672 24.945L0.886719 33.4666L9.73005 31.2166C12.1417 32.5016 14.8751 33.2516 17.6617 33.2516C26.7184 33.1983 34.1117 25.8016 34.1117 16.64C34.1117 12.245 32.3984 8.1183 29.2901 4.95663ZM17.5534 30.4116C15.0769 30.3988 12.6505 29.7132 10.5334 28.4283L9.99672 28.1083L4.79839 29.4466L6.24672 24.41L5.92505 23.8733C4.57184 21.663 3.84855 19.1249 3.83339 16.5333C3.83339 8.97663 9.94172 2.86664 17.5517 2.86664C21.1967 2.86664 24.6267 4.31497 27.1984 6.88663C28.4783 8.16713 29.4923 9.68805 30.1822 11.3619C30.8722 13.0358 31.2243 14.8295 31.2184 16.64C31.3251 24.305 25.1084 30.4133 17.5517 30.4133M25.1084 20.125C24.6801 19.91 22.6967 18.8916 22.2151 18.8383C21.8401 18.6766 21.5184 18.6233 21.3034 19.0533C21.0884 19.4816 20.2317 20.3383 20.0167 20.66C19.8034 20.875 19.5884 20.9816 19.1067 20.7133C18.6767 20.5 17.3901 20.125 15.7834 18.6233C14.5501 17.5516 13.6934 16.2116 13.5334 15.73C13.3184 15.3016 13.4784 15.14 13.7467 14.8716C13.9617 14.6583 14.1767 14.4433 14.3367 14.1216C14.5517 13.9083 14.5517 13.6933 14.7651 13.425C14.9801 13.2116 14.8184 12.89 14.7117 12.675C14.5517 12.4616 13.8001 10.425 13.4251 9.56663C13.1034 8.70997 12.7284 8.86997 12.5151 8.86997H11.7651C11.5484 8.86997 11.0151 8.9233 10.6917 9.40664C10.3167 9.83497 9.24505 10.8533 9.24505 12.89C9.24505 14.9266 10.6917 16.8016 10.9617 17.1766C11.1751 17.3916 13.9084 21.625 17.9817 23.4466C18.9451 23.875 19.6951 24.1433 20.3384 24.3583C21.3034 24.68 22.2151 24.5716 22.9117 24.5183C23.7151 24.465 25.3234 23.5533 25.6984 22.535C26.0201 21.625 26.0201 20.7133 25.9117 20.5516C25.8051 20.4466 25.4834 20.285 25.1084 20.125Z" fill="white"/>
</svg>
